<?xml version="1.0" encoding="UTF-8"?>
<svg id="Layer_1" data-name="Layer 1" xmlns="http://www.w3.org/2000/svg" xmlns:xlink="http://www.w3.org/1999/xlink" viewBox="0 0 313.04 354.65">
  <defs>
    <style>
      .cls-1 {
        fill: url(#linear-gradient-2);
      }

      .cls-2 {
        fill: url(#linear-gradient);
      }
    </style>
    <linearGradient id="linear-gradient" x1="0" y1="177.33" x2="293.52" y2="177.33" gradientUnits="userSpaceOnUse">
      <stop offset=".26" stop-color="#003279"/>
      <stop offset="1" stop-color="#00a8e9"/>
    </linearGradient>
    <linearGradient id="linear-gradient-2" x1="175.84" y1="228.25" x2="313.04" y2="228.25" xlink:href="#linear-gradient"/>
  </defs>
  <polygon class="cls-2" points="14.8 76.29 155.63 0 293.52 74.46 237.52 109.16 183.72 79.96 183.72 233.28 156.18 247.6 127.9 234.2 127.9 195.64 57.21 235.85 57.21 243.01 142.04 289.28 142.22 354.65 0 277.35 0 102.73 57.58 136.52 57.58 170.85 128.45 131.19 128.45 79.6 72.63 110.63 14.8 76.29"/>
  <polygon class="cls-1" points="255.26 137.91 313.04 102.62 313.04 276.74 175.84 353.88 175.84 285.99 255.47 243.38 255.26 137.91"/>
</svg>